<svg width="1440" height="1024" viewBox="0 0 1440 1024" fill="none" xmlns="http://www.w3.org/2000/svg">
<circle cx="675" cy="482.5" r="434.5" fill="#FFECCF"/>
<path fill-rule="evenodd" clip-rule="evenodd" d="M190 727.5C190 715.626 199.626 706 211.5 706H1372.5C1384.37 706 1394 715.626 1394 727.5V727.5C1394 739.374 1384.37 749 1372.5 749H1361.5C1349.63 749 1340 758.626 1340 770.5V770.5C1340 782.374 1330.37 792 1318.5 792H1311.5C1299.63 792 1290 801.626 1290 813.5V813.5C1290 825.374 1299.63 835 1311.5 835H1352.5C1364.37 835 1374 844.626 1374 856.5V856.5C1374 868.374 1364.37 878 1352.5 878H1251.5C1240.73 878 1232 886.73 1232 897.5V897.5C1232 908.27 1223.27 917 1212.5 917H280.5C268.626 917 259 907.374 259 895.5V895.5C259 883.626 268.626 874 280.5 874H381.5C392.27 874 401 865.27 401 854.5V854.5C401 843.73 392.27 835 381.5 835H247.5C235.626 835 226 825.374 226 813.5V813.5C226 801.626 235.626 792 247.5 792H258.5C270.374 792 280 782.374 280 770.5V770.5C280 758.626 270.374 749 258.5 749H211.5C199.626 749 190 739.374 190 727.5V727.5Z" fill="#0A1A48"/>
<path d="M894.94 286L960.707 484.75H829.174L894.94 286Z" fill="#2A7D3D"/>
<rect x="1317.07" y="656.232" width="17.2464" height="49.7681" fill="#534741"/>
<path d="M1325.42 570L1357.83 667.935H1293.01L1325.42 570Z" fill="#2A7D3D"/>
<rect x="281.001" y="638.569" width="23.7138" height="68.4312" fill="#534741"/>
<path d="M292.479 520L337.038 654.66H247.92L292.479 520Z" fill="#2A7D3D"/>
<rect x="1259.76" y="640.471" width="24.0942" height="69.529" fill="#534741"/>
<path d="M1271.42 520L1316.69 656.821H1226.15L1271.42 520Z" fill="#1E6C30"/>
<path d="M1048.92 344L1109.48 527H988.368L1048.92 344Z" fill="#2A7D3D"/>
<path d="M1108.32 424H681.202L527 706H737.335H954.122L1108.32 424Z" fill="#FEAF4E"/>
<path d="M681.676 424H1108.8L1263 706H1052.67H835.879L681.676 424Z" fill="#FFC95B"/>
<path d="M842.797 507.556H1034.1L1103.17 621.139H1008.96H911.863L842.797 507.556Z" fill="#FF881B"/>
<path d="M681.278 426.611L674.833 566.142C674.833 566.142 675.477 598.944 681.278 636.153C687.078 673.361 693.523 705.674 693.523 705.674C693.523 705.674 654.532 705.674 627.785 705.674C601.039 705.674 649.698 624.729 654.532 566.142C659.365 507.556 681.278 426.611 681.278 426.611Z" fill="#FF881B"/>
<rect x="380.894" y="692.247" width="14.4657" height="99.6527" rx="3.2146" transform="rotate(-74.5226 380.894 692.247)" fill="#814122"/>
<rect x="464.769" y="679.592" width="14.4657" height="99.6527" rx="3.2146" transform="rotate(73.9505 464.769 679.592)" fill="#BE6236"/>
<rect x="407.575" y="682.963" width="7.07213" height="67.5067" rx="3.2146" transform="rotate(-52.6393 407.575 682.963)" fill="#F2773C"/>
<path d="M468.762 634.149C468.762 658.004 451.03 677.342 429.158 677.342C407.285 677.342 389.554 658.004 389.554 634.149C389.554 610.295 407.078 576.05 429.158 547C429.158 584.268 468.762 610.295 468.762 634.149Z" fill="#FF881B"/>
<path d="M449.135 633.757C449.135 644.74 440.269 653.643 429.333 653.643C418.397 653.643 409.531 644.74 409.531 633.757C409.531 622.774 418.293 607.007 429.333 593.633C429.333 598.85 422.323 628.215 427.931 631.283C429.734 634.38 437.195 609.394 439.322 612.171C444.075 618.378 449.135 628.477 449.135 633.757Z" fill="#FDF228"/>
</svg>
